<svg width="25" height="25" viewBox="0 0 25 25" fill="none" xmlns="http://www.w3.org/2000/svg">
<g id="Frame 2">
<path id="Subtract" fill-rule="evenodd" clip-rule="evenodd" d="M3.6665 8.5C3.6665 6.29086 5.45737 4.5 7.6665 4.5H17.6665C19.8756 4.5 21.6665 6.29086 21.6665 8.5V14.5C21.6665 16.4356 20.2917 18.05 18.4654 18.4202L17.2646 20.5C17.0721 20.8333 16.591 20.8333 16.3986 20.5L15.2439 18.5H7.6665C5.45736 18.5 3.6665 16.7091 3.6665 14.5V8.5ZM8.6665 12.5C9.21879 12.5 9.6665 12.0523 9.6665 11.5C9.6665 10.9477 9.21879 10.5 8.6665 10.5C8.11422 10.5 7.6665 10.9477 7.6665 11.5C7.6665 12.0523 8.11422 12.5 8.6665 12.5ZM13.6665 11.5C13.6665 12.0523 13.2188 12.5 12.6665 12.5C12.1142 12.5 11.6665 12.0523 11.6665 11.5C11.6665 10.9477 12.1142 10.5 12.6665 10.5C13.2188 10.5 13.6665 10.9477 13.6665 11.5ZM16.6665 12.5C17.2188 12.5 17.6665 12.0523 17.6665 11.5C17.6665 10.9477 17.2188 10.5 16.6665 10.5C16.1142 10.5 15.6665 10.9477 15.6665 11.5C15.6665 12.0523 16.1142 12.5 16.6665 12.5Z" fill="#C1CFD4"/>
</g>
</svg>
