<svg width="128" height="128" viewBox="0 0 128 128" fill="none" xmlns="http://www.w3.org/2000/svg">
<g id="128">
<g id="Group 60">
<path id="Union" d="M21.2119 87.5853C21.2119 101.452 32.1466 112.693 45.6353 112.693C59.1239 112.693 70.0586 101.452 70.0586 87.5853L70.0586 51.635L21.2119 51.635L21.2119 87.5853Z" fill="#EA4435"/>
<path id="Rectangle 20" d="M33.4236 15C53.6566 15 70.0586 31.402 70.0586 51.635L45.6353 51.635C25.4023 51.635 9.00027 35.233 9.00027 15L33.4236 15Z" fill="#3F74E0"/>
<path id="Subtract" fill-rule="evenodd" clip-rule="evenodd" d="M94.5288 63.5617C108.044 63.5617 119 52.6908 119 39.2808C119 25.8709 108.044 15 94.5288 15C81.0137 15 70.0576 25.8709 70.0576 39.2808C70.0576 52.6908 81.0137 63.5617 94.5288 63.5617ZM94.5288 63.5617L90.3759 43.4014L70.0576 39.2808L90.3759 35.1602L94.5288 15L98.6817 35.1602L119 39.2808L98.6817 43.4014L94.5288 63.5617Z" fill="#34A853"/>
<path id="Star 2" d="M106.177 67.1223C106.52 66.9179 106.954 67.1687 106.949 67.5682L106.843 75.3911C106.839 75.6786 107.073 75.9128 107.361 75.9089L115.184 75.8029C115.583 75.7975 115.834 76.232 115.63 76.5752L111.626 83.2971C111.479 83.5442 111.565 83.864 111.816 84.0044L118.644 87.8241C118.992 88.0191 118.992 88.5209 118.644 88.7159L111.816 92.5356C111.565 92.676 111.479 92.9958 111.626 93.2429L115.63 99.9648C115.834 100.308 115.583 100.743 115.184 100.737L107.361 100.631C107.073 100.627 106.839 100.861 106.843 101.149L106.949 108.972C106.954 109.371 106.52 109.622 106.177 109.418L99.4548 105.415C99.2077 105.267 98.8879 105.353 98.7475 105.604L94.9278 112.432C94.7328 112.78 94.2311 112.78 94.036 112.432L90.2163 105.604C90.0759 105.353 89.7561 105.267 89.509 105.415L82.7872 109.418C82.4439 109.622 82.0094 109.371 82.0148 108.972L82.1208 101.149C82.1247 100.861 81.8905 100.627 81.603 100.631L73.7801 100.737C73.3806 100.743 73.1298 100.308 73.3342 99.9648L77.3374 93.2429C77.4845 92.9958 77.3989 92.676 77.1479 92.5356L70.3201 88.7159C69.9714 88.5209 69.9714 88.0191 70.3201 87.8241L77.1479 84.0044C77.3989 83.864 77.4845 83.5442 77.3374 83.2971L73.3342 76.5752C73.1298 76.232 73.3806 75.7975 73.7801 75.8029L81.603 75.9089C81.8905 75.9128 82.1247 75.6786 82.1208 75.3911L82.0148 67.5682C82.0094 67.1687 82.4439 66.9179 82.7872 67.1223L89.509 71.1255C89.7561 71.2726 90.0759 71.1869 90.2163 70.9359L94.036 64.1082C94.2311 63.7595 94.7328 63.7595 94.9278 64.1082L98.7475 70.9359C98.8879 71.1869 99.2077 71.2726 99.4548 71.1255L106.177 67.1223Z" fill="#F9AB00"/>
</g>
</g>
</svg>
